<?xml version="1.0" encoding="UTF-8" standalone="no"?>
<svg
   version="1.1"
   width="88"
   height="31"
   viewBox="0 0 88 31"
   id="svg17"
   sodipodi:docname="tidbit-cucumber-name-origin.svg"
   inkscape:version="1.4.2 (f4327f4, 2025-05-13)"
   xml:space="preserve"
   xmlns:inkscape="http://www.inkscape.org/namespaces/inkscape"
   xmlns:sodipodi="http://sodipodi.sourceforge.net/DTD/sodipodi-0.dtd"
   xmlns:xlink="http://www.w3.org/1999/xlink"
   xmlns="http://www.w3.org/2000/svg"
   xmlns:svg="http://www.w3.org/2000/svg"><defs
     id="defs17"><linearGradient
       id="linearGradient1"
       inkscape:collect="always"><stop
         style="stop-color:#ffffff;stop-opacity:1;"
         offset="0.19667591"
         id="stop1" /><stop
         style="stop-color:#64ff7a;stop-opacity:1;"
         offset="1"
         id="stop2" /></linearGradient><filter
       id="filter6017-3"
       color-interpolation-filters="sRGB"
       x="-0.017255854"
       y="-0.017528899"
       width="1.0345117"
       height="1.0350578"><feGaussianBlur
         id="feGaussianBlur6019-9"
         stdDeviation="0.80546496"
         inkscape:collect="always" /></filter><filter
       id="filter6031-0"
       color-interpolation-filters="sRGB"
       x="-0.074775365"
       y="-0.075958553"
       width="1.1495507"
       height="1.1519171"><feGaussianBlur
         id="feGaussianBlur6033-8"
         stdDeviation="3.4903482"
         inkscape:collect="always" /></filter><linearGradient
       x1="82.118591"
       y1="20"
       x2="60"
       y2="40"
       id="linearGradient9175-3"
       xlink:href="#linearGradient5785-8"
       gradientUnits="userSpaceOnUse" /><linearGradient
       id="linearGradient5785-8"
       gradientUnits="userSpaceOnUse"><stop
         id="stop5787-7"
         style="stop-color:#c0cdf9;stop-opacity:1"
         offset="0" /><stop
         id="stop5789-3"
         style="stop-color:#07092d;stop-opacity:0.28804347"
         offset="1" /></linearGradient><filter
       id="filter8490-0"
       color-interpolation-filters="sRGB"
       x="-0.051767563"
       y="-0.052586698"
       width="1.1035351"
       height="1.1051734"><feGaussianBlur
         id="feGaussianBlur8492-5"
         stdDeviation="2.4163949"
         inkscape:collect="always" /></filter><linearGradient
       x1="33"
       y1="35"
       x2="58"
       y2="60"
       id="shinySpecular-0"
       xlink:href="#WhiteTransparent-3"
       gradientUnits="userSpaceOnUse"
       gradientTransform="matrix(1.009184,0,0,1.009184,-0.3890738,-0.3831933)" /><linearGradient
       id="WhiteTransparent-3"
       gradientUnits="userSpaceOnUse"><stop
         id="stop7606-1"
         style="stop-color:#ffffff;stop-opacity:1"
         offset="0" /><stop
         id="stop7608-8"
         style="stop-color:#ffffff;stop-opacity:0"
         offset="1" /></linearGradient><linearGradient
       x1="60"
       y1="20"
       x2="90"
       y2="50"
       id="IcecapTip-0"
       xlink:href="#WhiteTransparent-3"
       gradientUnits="userSpaceOnUse" /><radialGradient
       cx="116.31038"
       cy="250.89737"
       r="30.599579"
       fx="116.31038"
       fy="250.89737"
       id="radialGradient9177-1"
       xlink:href="#WhiteTransparent-3"
       gradientUnits="userSpaceOnUse"
       gradientTransform="matrix(1.5700516,0,0,1.0509301,-75.500107,-22.095908)" /><radialGradient
       cx="132.44434"
       cy="251.99396"
       r="30.599579"
       fx="132.44434"
       fy="251.99396"
       id="radialGradient8574-0"
       xlink:href="#WhiteTransparent-3"
       gradientUnits="userSpaceOnUse"
       gradientTransform="matrix(2.0032532,0,0,1.340898,-132.8752,-95.166065)" /><filter
       height="1.2284413"
       y="-0.11422066"
       width="1.1561583"
       x="-0.078079153"
       id="filter8732-3"
       color-interpolation-filters="sRGB"><feGaussianBlur
         id="feGaussianBlur8734-5"
         stdDeviation="1.9579068"
         inkscape:collect="always" /></filter><radialGradient
       cx="210.25"
       cy="168.5"
       r="34.25"
       fx="210.25"
       fy="168.5"
       id="radialGradient8744-9"
       xlink:href="#WhiteTransparent-3"
       gradientUnits="userSpaceOnUse"
       gradientTransform="matrix(1,0,0,0.4233577,0,97.164234)" /><radialGradient
       cx="217.5"
       cy="182.08189"
       r="34.25"
       fx="217.5"
       fy="182.08189"
       id="radialGradient8768-6"
       xlink:href="#WhiteTransparent-3"
       gradientUnits="userSpaceOnUse"
       gradientTransform="matrix(1,0,0,0.4233577,0,97.164234)" /><filter
       height="1.3508246"
       y="-0.1754123"
       width="1.1485243"
       x="-0.07426214"
       id="filter8764-9"
       color-interpolation-filters="sRGB"><feGaussianBlur
         id="feGaussianBlur8766-2"
         stdDeviation="2.1195652"
         inkscape:collect="always" /></filter><filter
       height="1.6333958"
       y="-0.31669791"
       width="1.1922431"
       x="-0.096121549"
       id="filter8906-3"
       color-interpolation-filters="sRGB"><feGaussianBlur
         id="feGaussianBlur8908-7"
         stdDeviation="0.56515877"
         inkscape:collect="always" /></filter><radialGradient
       cx="228.21875"
       cy="204.83229"
       r="14.09375"
       fx="228.21875"
       fy="204.83229"
       id="radialGradient8922-9"
       xlink:href="#WhiteTransparent-3"
       gradientUnits="userSpaceOnUse"
       gradientTransform="matrix(1,0,0,0.1477455,0,174.56924)" /><filter
       height="1.9457178"
       y="-0.47285892"
       width="1.1553929"
       x="-0.077696454"
       id="filter8980-1"
       color-interpolation-filters="sRGB"><feGaussianBlur
         id="feGaussianBlur8982-9"
         stdDeviation="0.82052366"
         inkscape:collect="always" /></filter><filter
       height="1.6333958"
       y="-0.3166979"
       width="1.1922431"
       x="-0.09612155"
       id="filter20"
       color-interpolation-filters="sRGB"><feGaussianBlur
         id="feGaussianBlur20"
         stdDeviation="0.56515877"
         inkscape:collect="always" /></filter><radialGradient
       cx="228.21875"
       cy="204.83229"
       r="14.09375"
       fx="228.21875"
       fy="204.83229"
       id="radialGradient8994-0"
       xlink:href="#WhiteTransparent-3"
       gradientUnits="userSpaceOnUse"
       gradientTransform="matrix(1,0,0,0.1477455,0,174.56924)" /><filter
       height="1.9457178"
       y="-0.47285891"
       width="1.1553929"
       x="-0.077696458"
       id="filter22"
       color-interpolation-filters="sRGB"><feGaussianBlur
         id="feGaussianBlur22"
         stdDeviation="0.82052366"
         inkscape:collect="always" /></filter><radialGradient
       cx="89.875"
       cy="187.86935"
       r="22.75"
       fx="89.875"
       fy="187.86935"
       id="radialGradient9004-6"
       xlink:href="#linearGradient8998-5"
       gradientUnits="userSpaceOnUse"
       gradientTransform="matrix(1,0,0,0.4070844,0,115.76014)" /><linearGradient
       id="linearGradient8998-5"><stop
         id="stop9000-9"
         style="stop-color:#ffffff;stop-opacity:0.33004925"
         offset="0" /><stop
         id="stop9002-5"
         style="stop-color:#ffffff;stop-opacity:0"
         offset="1" /></linearGradient><filter
       height="1.6333958"
       y="-0.3166979"
       width="1.1922431"
       x="-0.09612155"
       id="filter26"
       color-interpolation-filters="sRGB"><feGaussianBlur
         id="feGaussianBlur26"
         stdDeviation="0.56515877"
         inkscape:collect="always" /></filter><radialGradient
       cx="90.28125"
       cy="230.83626"
       r="10.46875"
       fx="90.28125"
       fy="230.83626"
       id="radialGradient9046-1"
       xlink:href="#WhiteTransparent-3"
       gradientUnits="userSpaceOnUse"
       gradientTransform="matrix(1.1850746,-0.3283582,0.1228557,0.4433973,-45.068314,152.92161)" /><filter
       height="1.3311402"
       y="-0.16557009"
       width="1.1523586"
       x="-0.076179281"
       id="filter9068-2"
       color-interpolation-filters="sRGB"><feGaussianBlur
         id="feGaussianBlur9070-7"
         stdDeviation="0.66458488"
         inkscape:collect="always" /></filter><radialGradient
       cx="68.39994"
       cy="21.225746"
       r="54.783398"
       fx="68.39994"
       fy="21.225746"
       id="radialGradient11553-3"
       xlink:href="#WhiteTransparent-3"
       gradientUnits="userSpaceOnUse"
       gradientTransform="matrix(1.7221535,0,0,1.6949765,-49.39526,-14.078057)" /><filter
       id="filter9298-4"
       color-interpolation-filters="sRGB"
       x="-0.0094255304"
       y="-0.0095651172"
       width="1.0188083"
       height="1.0191444"><feGaussianBlur
         id="feGaussianBlur9300-4"
         stdDeviation="0.32610678"
         inkscape:collect="always" /></filter><linearGradient
       x1="95.5"
       y1="208.16444"
       x2="153.5"
       y2="223.5"
       id="linearGradient5905-4"
       xlink:href="#WhiteTransparent-3"
       gradientUnits="userSpaceOnUse" /><filter
       height="1.2446715"
       y="-0.12233575"
       width="1.165018"
       x="-0.082508983"
       id="filter5983-8"
       color-interpolation-filters="sRGB"><feGaussianBlur
         id="feGaussianBlur5985-3"
         stdDeviation="3.6868363"
         inkscape:collect="always" /></filter><linearGradient
       x1="57.225197"
       y1="76.246338"
       x2="53.63158"
       y2="84.480316"
       id="linearGradient5801-2"
       xlink:href="#linearGradient5793-9"
       gradientUnits="userSpaceOnUse"
       gradientTransform="matrix(0.8852575,0,0,0.8852575,5.1772151,9.2293372)" /><linearGradient
       id="linearGradient5793-9"><stop
         id="stop5795-5"
         style="stop-color:#eeeeec;stop-opacity:1"
         offset="0" /><stop
         id="stop5797-4"
         style="stop-color:#eeeeec;stop-opacity:0"
         offset="1" /></linearGradient><radialGradient
       cx="181.22731"
       cy="214.55121"
       r="22.466398"
       fx="181.22731"
       fy="214.55121"
       id="radialGradient5811-3"
       xlink:href="#WhiteTransparent-3"
       gradientUnits="userSpaceOnUse"
       gradientTransform="matrix(1.3515234,0,0,1.7175707,-63.705646,-153.95568)" /><filter
       id="filter5845-5"
       color-interpolation-filters="sRGB"
       x="-0.067752083"
       y="-0.053323477"
       width="1.1355042"
       height="1.106647"><feGaussianBlur
         id="feGaussianBlur5847-5"
         stdDeviation="1.2409356"
         inkscape:collect="always" /></filter><linearGradient
       x1="73.712105"
       y1="180.47572"
       x2="82.754066"
       y2="187.65974"
       id="linearGradient5822-7"
       xlink:href="#WhiteTransparent-3"
       gradientUnits="userSpaceOnUse"
       gradientTransform="matrix(0.4927913,0,0,0.4927913,-6.0003885,-9.7225182)" /><linearGradient
       x1="180.81293"
       y1="217.5"
       x2="153.70045"
       y2="144.5"
       id="linearGradient1539"
       xlink:href="#linearGradient10981-3-9"
       gradientUnits="userSpaceOnUse"
       gradientTransform="translate(-130.16572,-83.352786)" /><linearGradient
       id="linearGradient10981-3-9"><stop
         id="stop10983-2-0"
         style="stop-color:#729fcf;stop-opacity:1"
         offset="0" /><stop
         id="stop10985-3-7"
         style="stop-color:#729fcf;stop-opacity:0"
         offset="1" /></linearGradient><filter
       id="filter10997-7-2"
       color-interpolation-filters="sRGB"
       x="-0.059367484"
       y="-0.040286148"
       width="1.118735"
       height="1.0805723"><feGaussianBlur
         id="feGaussianBlur10999-0-7"
         stdDeviation="2.7696726"
         inkscape:collect="always" /></filter><linearGradient
       inkscape:collect="always"
       xlink:href="#linearGradient1"
       id="linearGradient2"
       x1="0"
       y1="15.5"
       x2="88"
       y2="15.5"
       gradientUnits="userSpaceOnUse" /></defs><sodipodi:namedview
     id="namedview17"
     pagecolor="#505050"
     bordercolor="#ffffff"
     borderopacity="1"
     inkscape:showpageshadow="0"
     inkscape:pageopacity="0"
     inkscape:pagecheckerboard="1"
     inkscape:deskcolor="#505050"
     showgrid="false"
     inkscape:zoom="11.546732"
     inkscape:cx="37.499788"
     inkscape:cy="22.993519"
     inkscape:window-width="1920"
     inkscape:window-height="991"
     inkscape:window-x="1911"
     inkscape:window-y="-8"
     inkscape:window-maximized="1"
     inkscape:current-layer="svg17" /><metadata
     id="metadata1" /><rect
     x="0"
     y="0"
     width="88"
     height="31"
     fill="#e5e5e5"
     rx="7"
     id="rect1"
     style="fill:url(#linearGradient2);fill-opacity:1" /><text
     x="35.488029"
     y="8.1833944"
     font-family="'-apple-system', 'Segoe UI', Helvetica, Arial, sans-serif"
     font-size="7.56652px"
     font-weight="700"
     fill="#adadad"
     id="text17"
     transform="scale(0.95487371,1.0472589)"
     style="stroke-width:1.26109"><tspan
       style="fill:#b3ca90;fill-opacity:1"
       id="tspan18" /></text><g
     fill="none"
     fill-rule="evenodd"
     id="g3-0"
     transform="matrix(0.75317692,0,0,0.74018624,5.2369209,1.2517189)"><path
       d="M -4,-1 H 36 V 39 H -4 Z"
       id="path1-9" /><path
       fill="#00a818"
       d="m 16.438,0.563 c -9.052,0 -16.375,7.323 -16.375,16.375 0,7.968 5.712,14.589 13.25,16.062 v 4.688 C 23.113,36.21 31.79,28.431 32.437,18.218 32.827,12.072 29.763,5.797 24.594,2.75 A 13.62,13.62 0 0 0 22.719,1.812 L 22.406,1.687 C 22.119,1.581 21.829,1.462 21.531,1.375 A 16.246,16.246 0 0 0 16.438,0.562 Z"
       id="path2-4" /><path
       fill="#ffffff"
       d="M 19.813,6.625 A 1.787,1.787 0 0 0 18.25,7.25 c -0.3,0.4 -0.488,0.787 -0.688,1.188 -0.6,1.4 -0.4,2.9 0.5,4 1.4,-0.3 2.588,-1.194 3.188,-2.594 0.2,-0.4 0.313,-0.913 0.313,-1.313 0.062,-1.062 -0.817,-1.81 -1.75,-1.906 z m -7.282,0.094 c -0.913,0.087 -1.781,0.812 -1.781,1.812 0,0.4 0.113,0.913 0.313,1.313 0.6,1.4 1.88,2.293 3.28,2.594 0.8,-1.1 1.007,-2.6 0.407,-4 -0.2,-0.4 -0.387,-0.794 -0.688,-1.094 A 1.757,1.757 0 0 0 12.532,6.719 Z M 7.625,11.53 c -1.577,0.081 -2.281,2.063 -0.969,3.094 0.4,0.3 0.788,0.519 1.188,0.719 1.4,0.6 3.019,0.394 4.218,-0.406 -0.3,-1.3 -1.318,-2.494 -2.718,-3.094 -0.5,-0.2 -0.906,-0.313 -1.406,-0.313 -0.113,-0.012 -0.208,-0.005 -0.313,0 z m 15.406,6.063 a 4.574,4.574 0 0 0 -2.593,0.75 c 0.3,1.3 1.318,2.493 2.718,3.093 0.5,0.2 0.907,0.313 1.407,0.313 1.8,0.1 2.68,-2.125 1.28,-3.125 -0.4,-0.3 -0.787,-0.488 -1.187,-0.688 A 4.32,4.32 0 0 0 23.031,17.593 Z M 9.375,17.686 c -0.55,0.011 -1.1,0.12 -1.625,0.344 -0.5,0.2 -0.888,0.419 -1.188,0.719 -1.3,1.1 -0.425,3.194 1.375,3.094 0.5,0 1.007,-0.113 1.407,-0.313 1.4,-0.6 2.394,-1.793 2.594,-3.093 a 4.475,4.475 0 0 0 -2.563,-0.75 z m 5.063,3.063 c -1.4,0.3 -2.588,1.194 -3.188,2.594 -0.2,0.4 -0.313,0.881 -0.313,1.281 -0.1,1.7 2.22,2.613 3.22,1.313 0.3,-0.4 0.487,-0.788 0.687,-1.188 0.6,-1.3 0.394,-2.8 -0.406,-4 z m 3.718,0.094 c -0.8,1.1 -1.006,2.6 -0.406,4 0.2,0.4 0.387,0.793 0.688,1.093 1.1,1.2 3.412,0.313 3.312,-1.187 0,-0.4 -0.113,-0.913 -0.313,-1.313 -0.6,-1.4 -1.88,-2.293 -3.28,-2.593 z"
       id="path3-8" /></g><text
     xml:space="preserve"
     style="font-size:9.27099px;text-align:start;writing-mode:lr-tb;direction:ltr;text-anchor:start;fill:#d2f8db;fill-opacity:1;stroke-width:0.772582"
     x="36.142574"
     y="12.273902"
     id="text18"
     transform="scale(0.9805378,1.0198485)"><tspan
       id="tspan17"
       x="36.142574"
       y="12.273902"
       style="fill:#1fb71f;fill-opacity:1;stroke-width:0.772582"
       sodipodi:role="line">Why called</tspan><tspan
       x="36.142574"
       y="23.862638"
       style="fill:#1fb71f;fill-opacity:1;stroke-width:0.772582"
       sodipodi:role="line"
       id="tspan19">Cucumber?</tspan></text></svg>
