<?xml version="1.0" encoding="UTF-8" standalone="no"?>
<svg
   width="88"
   height="31"
   viewBox="0 0 88 31"
   version="1.1"
   id="svg5"
   sodipodi:docname="tidbit-python-anaconda.svg"
   inkscape:version="1.4.2 (f4327f4, 2025-05-13)"
   xmlns:inkscape="http://www.inkscape.org/namespaces/inkscape"
   xmlns:sodipodi="http://sodipodi.sourceforge.net/DTD/sodipodi-0.dtd"
   xmlns="http://www.w3.org/2000/svg"
   xmlns:svg="http://www.w3.org/2000/svg">
  <defs
     id="defs5" />
  <sodipodi:namedview
     id="namedview5"
     pagecolor="#505050"
     bordercolor="#ffffff"
     borderopacity="1"
     inkscape:showpageshadow="0"
     inkscape:pageopacity="0"
     inkscape:pagecheckerboard="1"
     inkscape:deskcolor="#505050"
     inkscape:zoom="10.073864"
     inkscape:cx="48.739989"
     inkscape:cy="16.130852"
     inkscape:window-width="1920"
     inkscape:window-height="991"
     inkscape:window-x="-9"
     inkscape:window-y="-9"
     inkscape:window-maximized="1"
     inkscape:current-layer="svg5" />
  <!-- Badge background -->
  <rect
     x="0"
     y="0"
     width="88"
     height="31"
     rx="7"
     fill="#e5e5e5"
     id="rect1"
     style="fill:#e2f7d3;fill-opacity:1" />
  <!-- Python logo -->
  <g
     transform="matrix(0.236,0,0,0.236,2.1579245,2.3014664)"
     id="g4">
    <linearGradient
       id="python-blue"
       gradientUnits="userSpaceOnUse"
       x1="63.815899"
       y1="56.682899"
       x2="118.4934"
       y2="1.8225"
       gradientTransform="matrix(1,0,0,-1,-53.2974,66.4321)">
      <stop
         offset="0"
         style="stop-color:#387EB8"
         id="stop1" />
      <stop
         offset="1"
         style="stop-color:#366994"
         id="stop2" />
    </linearGradient>
    <path
       fill="url(#python-blue)"
       d="m 55.023,-0.077 c -25.971,0 -26.25,10.081 -26.25,12.156 0,3.148 0,12.594 0,12.594 h 26.75 v 3.781 c 0,0 -27.852,0 -37.375,0 -7.949,0 -17.938,4.833 -17.938,26.25 0,19.673 7.792,27.281 15.656,27.281 2.335,0 9.344,0 9.344,0 0,0 0,-9.765 0,-13.125 0,-5.491 2.721,-15.656 15.406,-15.656 15.91,0 19.971,0 26.531,0 3.902,0 14.906,-1.696 14.906,-14.406 0,-13.452 0,-17.89 0,-24.219 0.001,-3.153 -0.538,-14.656 -27.03,-14.656 z m -14.75,8.469 c 2.662,0 4.813,2.15 4.813,4.813 0,2.661 -2.151,4.813 -4.813,4.813 -2.662,0 -4.813,-2.151 -4.813,-4.813 0,-2.663 2.151,-4.813 4.813,-4.813 z"
       id="path2"
       style="fill:url(#python-blue)" />
    <linearGradient
       id="python-yellow"
       gradientUnits="userSpaceOnUse"
       x1="97.044403"
       y1="21.632099"
       x2="155.6665"
       y2="-34.5308"
       gradientTransform="matrix(1,0,0,-1,-53.2974,66.4321)">
      <stop
         offset="0"
         style="stop-color:#FFE052"
         id="stop3" />
      <stop
         offset="1"
         style="stop-color:#FFC331"
         id="stop4" />
    </linearGradient>
    <path
       fill="url(#python-yellow)"
       d="m 55.397,109.923 c 25.959,0 26.282,-10.271 26.282,-12.156 0,-3.148 0,-12.594 0,-12.594 H 54.897 v -3.781 c 0,0 28.032,0 37.375,0 8.009,0 17.938,-4.954 17.938,-26.25 0,-23.322 -10.538,-27.281 -15.656,-27.281 -2.336,0 -9.344,0 -9.344,0 0,0 0,10.216 0,13.125 0,5.491 -2.631,15.656 -15.406,15.656 -15.91,0 -19.476,0 -26.532,0 -3.892,0 -14.906,1.896 -14.906,14.406 0,14.475 0,18.265 0,24.219 0,5.23 3.196,14.656 27.031,14.656 z m 14.751,-8.469 c -2.662,0 -4.813,-2.151 -4.813,-4.813 0,-2.662 2.15,-4.813 4.813,-4.813 2.661,0 4.813,2.151 4.813,4.813 0,2.662 -2.152,4.813 -4.813,4.813 z"
       id="path4"
       style="fill:url(#python-yellow)" />
  </g>
  <!-- Anaconda logo -->
  <g
     transform="matrix(0.049,0,0,0.049,61.132544,3.1985336)"
     id="g5">
    <path
       d="m 256.54,6.541 c -9.546,0 -19.109,0.732 -28.09,1.464 a 299.28,299.28 0 0 1 37.686,30.4 l 9.562,8.881 -9.562,9.563 a 257.875,257.875 0 0 0 -23.649,25.129 v 0.731 a 52.243,52.243 0 0 0 -3.692,4.44 140.62,140.62 0 0 1 17.745,-0.731 c 44.686,0.599 87.327,18.792 118.71,50.59 A 169.997,169.997 0 0 1 424.21,256.4 c 0,44.687 -17.579,87.577 -48.96,119.375 a 170.021,170.021 0 0 1 -118.71,50.607 165.673,165.673 0 0 1 -88.691,-25.13 340.864,340.864 0 0 1 -38.417,2.23 140.775,140.775 0 0 1 -17.761,-0.766 576.943,576.943 0 0 0 5.205,59.854 245.585,245.585 0 0 0 139.664,42.89 c 32.762,0 65.192,-6.453 95.46,-18.992 A 249.758,249.758 0 0 0 432.94,432.402 249.229,249.229 0 0 0 487.007,351.461 249.382,249.382 0 0 0 505.999,256 c 0,-32.762 -6.453,-65.192 -18.992,-95.46 A 249.229,249.229 0 0 0 432.94,79.6 249.758,249.758 0 0 0 352,25.532 249.382,249.382 0 0 0 256.54,6.54 Z M 121.3,46.455 A 247.805,247.805 0 0 1 175.965,19.845 383.443,383.443 0 0 0 158.918,55.302 343.067,343.067 0 0 0 121.3,46.455 Z m -14.02,90.703 c 9.962,-0.665 19.442,-1.314 29.536,-1.314 a 151.088,151.088 0 0 0 -26.609,34.01 253.634,253.634 0 0 1 -5.92,-32.497 l 2.993,-0.2 z m -8.88,250.74 v 1.463 l -2.246,-0.665 A 293.045,293.045 0 0 1 39.993,378.335 l -1.464,-0.732 0.732,-1.497 a 397.778,397.778 0 0 1 20.672,-51.654 l 0.765,-1.497 1.464,0.748 a 379.056,379.056 0 0 0 38.433,19.109 l 1.497,0.732 v 1.463 a 268.584,268.584 0 0 0 -3.692,42.89 z m 0,14.734 v -1.463 h -1.514 a 381.511,381.511 0 0 1 -48.029,-8.116 l -4.44,-0.732 2.228,3.692 a 258.618,258.618 0 0 0 52.486,57.625 l 2.96,2.96 V 451.41 A 385.926,385.926 0 0 1 98.4,402.632 Z M 238.795,48.65 c -5.155,5.189 -10.36,11.092 -15.516,17.013 -0.632,0.732 -4.424,5.155 -8.881,11.126 -10.328,-4.923 -20.921,-9.147 -31.415,-13.338 l -1.813,-0.715 a 303.496,303.496 0 0 1 20.672,-41.427 439.66,439.66 0 0 1 36.953,27.34 z m -184.75,159.654 0.733,1.463 1.463,-0.732 a 384.844,384.844 0 0 1 36.221,-22.9 l 1.464,-0.732 v -1.497 A 286.994,286.994 0 0 1 85.81,140.351 v -1.497 H 84.347 A 321.897,321.897 0 0 0 30.38,153.64 l -1.48,0.732 0.732,1.496 a 224.993,224.993 0 0 0 24.414,52.437 z m -4.423,25.112 1.464,-1.464 0.881,2.112 a 389.263,389.263 0 0 0 25.877,32.48 l 0.732,0.748 -0.732,1.497 a 333.041,333.041 0 0 0 -22.301,33.993 l -0.732,1.463 -1.464,-0.731 A 425.24,425.24 0 0 1 11.92,272.48 l -1.496,-1.497 1.496,-1.347 a 344.828,344.828 0 0 1 37.702,-36.221 z m 79.794,156.693 h 24.38 l -3.692,-2.96 a 153.998,153.998 0 0 1 -33.993,-38.433 v -0.732 l -2.943,-1.497 v 2.229 a 335.975,335.975 0 0 0 -2.96,39.198 v 1.464 h 1.463 c 2.977,0 5.92,0.182 8.88,0.365 2.96,0.183 5.904,0.366 8.865,0.366 z M 151.6,77.504 a 294.07,294.07 0 0 0 -10.361,36.221 325.855,325.855 0 0 0 -38.417,2.129 361.767,361.767 0 0 1 0.732,-48.778 351.297,351.297 0 0 1 48.046,10.428 z m 13.288,35.423 a 216.788,216.788 0 0 1 34.758,-16.98 205.86,205.86 0 0 0 -26.643,-11.076 c -2.927,8.848 -5.887,18.477 -8.115,28.056 z M 47.41,315.587 h 1.447 l -0.715,2.928 a 419.267,419.267 0 0 0 -17.745,41.426 l -1.463,3.692 -1.464,-3.692 A 233.405,233.405 0 0 1 7.497,290.475 l -0.732,-4.457 3.692,2.96 a 423.418,423.418 0 0 0 36.953,26.61 z M 80.638,78.967 a 247.074,247.074 0 0 0 -38.417,49.51 c 12.457,-3.676 25.678,-6.586 38.866,-9.496 l 0.3,-0.067 C 80.638,105.56 80.638,92.288 80.638,78.967 Z m 7.4,170.713 v 4.424 l -2.111,-3.725 c -5.605,-6.153 -10.76,-13.188 -15.833,-20.073 -1.63,-2.195 -3.226,-4.39 -4.84,-6.52 l -2.228,-1.496 1.497,-0.732 c 9.18,-6.403 18.36,-12.09 27.524,-17.778 l 1.147,-0.715 3.692,-2.195 -1.463,4.457 a 174.559,174.559 0 0 0 -7.384,44.353 z m 2.196,30.318 -0.732,-4.424 -2.195,3.692 c -6.652,9.563 -13.321,19.94 -19.125,30.301 l -0.765,1.464 1.513,0.732 c 10.028,5.754 20.788,10.793 31.565,15.848 l 0.931,0.433 3.692,1.463 -1.463,-3.692 A 163.828,163.828 0 0 1 90.234,279.998 Z m -47.28,-60.735 -1.498,0.732 A 183.576,183.576 0 0 0 8.96,251.144 L 6,254.104 v -4.424 a 249.317,249.317 0 0 1 11.824,-70.214 l 1.497,-4.424 1.464,3.692 a 402.272,402.272 0 0 0 21.436,39.032 l 0.732,1.497 z"
       fill="#43b049"
       id="path5" />
  </g>
  <text
     xml:space="preserve"
     style="font-size:8px;line-height:1.1;text-align:start;writing-mode:lr-tb;direction:ltr;text-anchor:start;fill:#ca3c3c;fill-opacity:1;stroke-width:0.6;stroke-dasharray:2.4, 0.6;stroke-dashoffset:0.06"
     x="30.574171"
     y="13.103215"
     id="text5"><tspan
       sodipodi:role="line"
       id="tspan5"
       x="30.574171"
       y="13.103215">Why</tspan><tspan
       sodipodi:role="line"
       x="30.574171"
       y="21.903215"
       id="tspan6">Snakes?</tspan></text>
</svg>
